<?xml version="1.0" encoding="utf-8"?>
<!-- Generator: Adobe Illustrator 21.0.0, SVG Export Plug-In . SVG Version: 6.00 Build 0)  -->
<svg version="1.1" id="Layer_1" xmlns="http://www.w3.org/2000/svg" xmlns:xlink="http://www.w3.org/1999/xlink" x="0px" y="0px"
	 viewBox="0 0 100 100" style="enable-background:new 0 0 100 100;" xml:space="preserve">
<style type="text/css">
	.st0{fill:#F1F1F1;}
	.st1{fill:#1CC871;}
	.st2{fill:none;stroke:#FFFFFF;stroke-width:2;stroke-linejoin:round;stroke-miterlimit:10;}
</style>
<g>
	<rect x="58.6" y="87.5" class="st0" width="2" height="2"/>
	<rect x="38.3" y="87.5" class="st0" width="1.9" height="2"/>
	<rect x="31.5" y="87.5" class="st0" width="1.9" height="2"/>
	<rect x="51.8" y="87.5" class="st0" width="1.9" height="2"/>
	<rect x="45" y="87.5" class="st0" width="1.9" height="2"/>
	<rect x="24.6" y="87.5" class="st0" width="2" height="2"/>
	<rect x="24.6" y="67.8" class="st0" width="2" height="1.9"/>
	<rect x="24.6" y="80.9" class="st0" width="2" height="1.9"/>
	<rect x="24.6" y="54.6" class="st0" width="2" height="1.9"/>
	<rect x="24.6" y="41.4" class="st0" width="2" height="1.9"/>
	<rect x="24.6" y="61.2" class="st0" width="2" height="1.9"/>
	<rect x="24.6" y="74.3" class="st0" width="2" height="1.9"/>
	<rect x="24.6" y="48" class="st0" width="2" height="1.9"/>
	<rect x="24.6" y="34.7" class="st0" width="2" height="2"/>
	<rect x="31.5" y="34.7" class="st0" width="1.9" height="2"/>
	<rect x="38.3" y="34.7" class="st0" width="1.9" height="2"/>
	<rect x="58.6" y="74.3" class="st0" width="2" height="1.9"/>
	<rect x="58.6" y="80.9" class="st0" width="2" height="1.9"/>
	<rect x="58.6" y="67.8" class="st0" width="2" height="1.9"/>
</g>
<path class="st0" d="M73.6,16.8l-3.4-3.2l-3.4,3.2l-3.4-3.2L60,16.8l-3.4-3.2l-3.4,3.2l-3.4-3.2l-3.4,3.2L43,13.6v52.8l3.4-3.2
	l3.4,3.2l3.4-3.2l3.4,3.2l3.4-3.2l3.4,3.2L66,64c-1.7-2-2.7-4.7-2.7-7.5c0-2.1,0.6-4.1,1.5-5.8H51v-2h15.2c2.2-2.5,5.4-4.1,9-4.1
	c0.6,0,1.2,0.1,1.8,0.2V13.6L73.6,16.8z M68,40.7H51v-2h17V40.7z M68,30.7H51v-2h17V30.7z"/>
<path class="st1" d="M75.2,46.6c-5.5,0-9.9,4.4-9.9,9.9s4.4,9.9,9.9,9.9s9.9-4.4,9.9-9.9S80.7,46.6,75.2,46.6z"/>
<g>
	<line class="st2" x1="70.4" y1="56.5" x2="80" y2="56.5"/>
	<line class="st2" x1="75.2" y1="51.7" x2="75.2" y2="61.3"/>
</g>
</svg>
