<svg width="62" height="62" viewBox="0 0 62 62" fill="none" xmlns="http://www.w3.org/2000/svg">
<path d="M33.0665 6.19995V16.5335H43.4L33.0665 6.19995Z" fill="#9B51E0"/>
<path d="M29.9665 19.6335V6.19995H6.2V55.7999H27.9V39.2664H10.3335V36.1664H28.9596C29.902 34.919 31.3856 34.1 33.0665 34.1H34.1V33.0664C34.1 30.2169 36.4169 27.9 39.2665 27.9H43.4V19.6335H29.9665ZM23.7665 51.6664H10.3335V48.5664H23.7671L23.7665 51.6664ZM23.7665 42.3664V45.4664H10.3335V42.3664H23.7665ZM16.5335 10.3335C18.2454 10.3335 19.6335 11.7223 19.6335 13.4335C19.6335 15.1453 18.2454 16.5335 16.5335 16.5335C14.8223 16.5335 13.4335 15.1453 13.4335 13.4335C13.4335 11.7217 14.8217 10.3335 16.5335 10.3335ZM10.3335 20.6664C10.3335 19.5324 11.2617 18.6 12.4 18.6H13.1186C14.0994 19.2497 15.27 19.6335 16.5335 19.6335C17.7971 19.6335 18.9677 19.2503 19.9485 18.6H20.6671C21.8011 18.6 22.7335 19.5324 22.7335 20.6664V24.8H10.3335V20.6664ZM26.8665 33.0664H10.3335V29.9664H26.8671L26.8665 33.0664Z" fill="#9B51E0"/>
<path d="M44.95 47.4406V50.6336H41.85V47.4406C37.9831 47.2552 34.2228 46.363 31 44.7727V53.7336C31 54.8694 31.9306 55.8 33.0665 55.8H53.7335C54.8694 55.8 55.8 54.8694 55.8 53.7336V44.7727C52.5748 46.3624 48.8169 47.2552 44.95 47.4406Z" fill="#9B51E0"/>
<path d="M55.8 41.3249V39.2665C55.8 38.1306 54.8694 37.2 53.7335 37.2H49.6V33.0665C49.6 31.9306 48.6694 31 47.5335 31H39.2665C38.1306 31 37.2 31.9306 37.2 33.0665V37.2H33.0665C31.9306 37.2 31 38.1306 31 39.2665V41.3249C37.8479 45.4584 48.9502 45.4584 55.8 41.3249ZM40.3 34.1H46.5V37.2H40.3V34.1Z" fill="#9B51E0"/>
</svg>
