<svg width="55" height="55" viewBox="0 0 55 55" fill="none" xmlns="http://www.w3.org/2000/svg">
<path d="M26.6406 16.3281H28.3594V12.8906H31.7969V11.1719H28.3594V7.73438H26.6406V11.1719H23.2031V12.8906H26.6406V16.3281Z" fill="#9B51E0"/>
<path d="M3.4375 36.0938H11.1719V9.45312H6.01562C3.4375 9.45312 3.4375 10.7465 3.4375 11.1719V36.0938Z" fill="#9B51E0"/>
<path d="M27.5 41.25C27.9746 41.25 28.3594 40.8653 28.3594 40.3906C28.3594 39.916 27.9746 39.5312 27.5 39.5312C27.0254 39.5312 26.6406 39.916 26.6406 40.3906C26.6406 40.8653 27.0254 41.25 27.5 41.25Z" fill="#9B51E0"/>
<path d="M24.9219 40.3906C24.9219 39.7069 25.1935 39.0511 25.677 38.5676C26.1605 38.0841 26.8163 37.8125 27.5 37.8125H3.4375V40.3906C3.4375 41.0743 3.70912 41.7301 4.19262 42.2136C4.67611 42.6971 5.33186 42.9688 6.01562 42.9688H27.5C26.8163 42.9688 26.1605 42.6971 25.677 42.2136C25.1935 41.7301 24.9219 41.0743 24.9219 40.3906Z" fill="#9B51E0"/>
<path d="M51.5625 37.8125H27.5C28.1837 37.8125 28.8395 38.0841 29.323 38.5676C29.8065 39.0511 30.0781 39.7069 30.0781 40.3906C30.0781 41.0743 29.8065 41.7301 29.323 42.2136C28.8395 42.6971 28.1837 42.9688 27.5 42.9688H48.9844C49.6681 42.9688 50.3239 42.6971 50.8074 42.2136C51.2909 41.7301 51.5625 41.0743 51.5625 40.3906V37.8125Z" fill="#9B51E0"/>
<path d="M32.6562 44.6875H22.3438V48.125H32.6562V44.6875Z" fill="#9B51E0"/>
<path d="M12.8906 4.29688V36.0938H42.1094V11.1719H35.2344V4.29688H12.8906ZM21.4844 9.45312H24.9219V6.01562H30.0781V9.45312H33.5156V14.6094H30.0781V18.0469H24.9219V14.6094H21.4844V9.45312ZM38.6719 32.6562H24.9219V30.9375H38.6719V32.6562ZM38.6719 29.2188H24.9219V27.5H38.6719V29.2188ZM38.6719 24.0625V25.7812H24.9219V24.0625H38.6719Z" fill="#9B51E0"/>
<path d="M36.9531 9.45302H40.8942L36.9531 5.51196V9.45302Z" fill="#9B51E0"/>
<path d="M51.5625 12.0312C51.5625 11.3475 51.2908 10.6917 50.8074 10.2083C50.3239 9.72477 49.6681 9.45312 48.9844 9.45312H43.3245L43.8281 9.95672V36.0938H51.5625V12.0312Z" fill="#9B51E0"/>
<path d="M39.5312 51.5625V50.7031C39.5312 50.4752 39.4407 50.2566 39.2795 50.0955C39.1184 49.9343 38.8998 49.8438 38.6719 49.8438H16.3281C16.1002 49.8438 15.8816 49.9343 15.7205 50.0955C15.5593 50.2566 15.4688 50.4752 15.4688 50.7031V51.5625H12.0312V53.2812H42.9688V51.5625H39.5312Z" fill="#9B51E0"/>
<path d="M20.2364 35C20.0977 35 19.943 34.9627 19.7724 34.888C19.6124 34.8027 19.4524 34.6587 19.2924 34.456C19.143 34.2533 19.015 33.9707 18.9084 33.608C18.8124 33.2453 18.7644 32.7813 18.7644 32.216C18.7644 31.8747 18.7057 31.592 18.5884 31.368C18.4817 31.144 18.3377 30.9627 18.1564 30.824C17.9857 30.6853 17.783 30.5893 17.5484 30.536C17.3244 30.4827 17.095 30.456 16.8604 30.456H14.9884C14.807 30.456 14.6524 30.4027 14.5244 30.296C14.3964 30.1787 14.3324 30.0293 14.3324 29.848C14.3324 29.6667 14.3964 29.5227 14.5244 29.416C14.6524 29.3093 14.807 29.256 14.9884 29.256H17.2284C17.5377 29.2347 17.8257 29.1333 18.0924 28.952C18.3697 28.76 18.5937 28.4987 18.7644 28.168C18.935 27.8267 19.0204 27.4373 19.0204 27C19.0204 26.4347 18.839 25.976 18.4764 25.624C18.1244 25.2613 17.6817 25.08 17.1484 25.08H14.8924C14.711 25.08 14.5564 25.0213 14.4284 24.904C14.311 24.776 14.2524 24.616 14.2524 24.424C14.2524 24.2427 14.311 24.0933 14.4284 23.976C14.5564 23.8587 14.711 23.8 14.8924 23.8H21.1004C21.2817 23.8 21.431 23.864 21.5484 23.992C21.6764 24.1093 21.7404 24.2587 21.7404 24.44C21.7404 24.6213 21.6764 24.776 21.5484 24.904C21.431 25.0213 21.2817 25.08 21.1004 25.08H18.3324L17.4684 24.504C18.023 24.504 18.519 24.616 18.9564 24.84C19.4044 25.064 19.7564 25.3733 20.0124 25.768C20.2684 26.1627 20.3964 26.616 20.3964 27.128C20.3964 27.5333 20.311 27.9173 20.1404 28.28C19.9804 28.6427 19.7564 28.9627 19.4684 29.24C19.1804 29.5067 18.8604 29.7147 18.5084 29.864L18.1564 29.656C18.4764 29.7413 18.775 29.896 19.0524 30.12C19.3297 30.3333 19.559 30.6107 19.7404 30.952C19.9217 31.2827 20.0177 31.6613 20.0284 32.088C20.0497 32.4827 20.0764 32.7973 20.1084 33.032C20.1404 33.2667 20.1884 33.4533 20.2524 33.592C20.3164 33.72 20.4124 33.8213 20.5404 33.896C20.647 33.96 20.7217 34.04 20.7644 34.136C20.8177 34.232 20.8444 34.328 20.8444 34.424C20.8444 34.5947 20.7857 34.7333 20.6684 34.84C20.5617 34.9467 20.4177 35 20.2364 35ZM14.8924 27.64C14.711 27.64 14.5564 27.5813 14.4284 27.464C14.311 27.336 14.2524 27.1813 14.2524 27C14.2524 26.8187 14.311 26.6693 14.4284 26.552C14.5564 26.424 14.711 26.36 14.8924 26.36H21.1004C21.2817 26.36 21.431 26.424 21.5484 26.552C21.6764 26.68 21.7404 26.8347 21.7404 27.016C21.7404 27.1973 21.6764 27.3467 21.5484 27.464C21.431 27.5813 21.2817 27.64 21.1004 27.64H14.8924Z" fill="white"/>
</svg>
