<svg width="54" height="55" viewBox="0 0 54 55" fill="none" xmlns="http://www.w3.org/2000/svg">
<g clip-path="url(#clip0_10_1001)">
<path fill-rule="evenodd" clip-rule="evenodd" d="M1.24603 6.43087V45.1918H8.83633C9.20273 45.1918 9.50015 45.4951 9.50015 45.868V54.9997H37.3013V45.4796C31.9357 45.1084 27.6822 40.5448 27.6822 34.9869C27.6822 29.4298 31.936 24.8665 37.3013 24.4955V7.19206C37.3013 4.17661 38.8428 1.52081 41.1656 -0.000610352H7.55963C4.07788 -0.000610352 1.24603 2.88497 1.24603 6.43087ZM25.7244 10.086C25.7244 10.086 6.85087 10.086 5.97664 10.086C5.10241 10.086 5.10241 6.73348 5.97664 6.73348H25.7244C26.5983 6.73348 26.5987 10.086 25.7244 10.086ZM25.7244 18.8204H5.97664C5.10241 18.8204 5.10241 15.4682 5.97664 15.4682H25.7244C26.5983 15.4682 26.5987 18.8204 25.7244 18.8204ZM25.7244 27.5552H5.97664C5.10241 27.5552 5.10241 24.2029 5.97664 24.2029H25.7244C26.5983 24.2029 26.5987 27.5552 25.7244 27.5552ZM25.7244 36.2902H5.97664C5.10272 36.2902 5.10272 32.9377 5.97664 32.9377H25.7244C26.5983 32.9377 26.5987 36.2902 25.7244 36.2902Z" fill="#9B51E0"/>
<path fill-rule="evenodd" clip-rule="evenodd" d="M38.6302 7.19243L38.6299 13.6236H52.754V7.19243C52.754 3.22661 49.5858 -0.000244141 45.6921 -0.000244141C41.7981 -0.000244141 38.6299 3.22661 38.6299 7.19243H38.6302Z" fill="#9B51E0"/>
<path fill-rule="evenodd" clip-rule="evenodd" d="M8.17248 46.545H2.02563L8.17248 53.8486V46.545Z" fill="#9B51E0"/>
<path fill-rule="evenodd" clip-rule="evenodd" d="M38.0082 44.3781C32.9251 44.3781 28.7887 40.1654 28.7887 34.9872C28.7887 29.81 32.9248 25.5977 38.0082 25.5977C43.0916 25.5977 47.2277 29.81 47.2277 34.9872C47.2277 40.1657 43.0916 44.3781 38.0082 44.3781Z" fill="#9B51E0"/>
<path d="M40.6843 41C40.5563 41 40.407 40.9627 40.2363 40.888C40.0656 40.8027 39.9003 40.6587 39.7403 40.456C39.591 40.2533 39.463 39.9707 39.3563 39.608C39.2603 39.2453 39.2123 38.7813 39.2123 38.216C39.2123 37.8747 39.159 37.592 39.0523 37.368C38.9456 37.144 38.8016 36.9627 38.6203 36.824C38.439 36.6853 38.2363 36.5893 38.0123 36.536C37.7883 36.4827 37.559 36.456 37.3243 36.456H35.6763C35.495 36.456 35.3403 36.4027 35.2123 36.296C35.095 36.1787 35.0363 36.0293 35.0363 35.848C35.0363 35.6667 35.095 35.5227 35.2123 35.416C35.3403 35.3093 35.495 35.256 35.6763 35.256H37.6763C37.9856 35.2347 38.2736 35.1333 38.5403 34.952C38.8176 34.76 39.0416 34.4987 39.2123 34.168C39.3936 33.8267 39.4843 33.4373 39.4843 33C39.4843 32.4347 39.303 31.976 38.9403 31.624C38.5883 31.2613 38.1403 31.08 37.5963 31.08H35.5963C35.415 31.08 35.2603 31.0213 35.1323 30.904C35.0043 30.776 34.9403 30.616 34.9403 30.424C34.9403 30.2427 35.0043 30.0933 35.1323 29.976C35.2603 29.8587 35.415 29.8 35.5963 29.8H41.5483C41.7296 29.8 41.8843 29.864 42.0123 29.992C42.1403 30.1093 42.2043 30.2587 42.2043 30.44C42.2043 30.6213 42.1403 30.776 42.0123 30.904C41.8843 31.0213 41.7296 31.08 41.5483 31.08H38.7803L37.9163 30.504C38.471 30.504 38.967 30.616 39.4043 30.84C39.8523 31.064 40.2043 31.3733 40.4603 31.768C40.727 32.1627 40.8603 32.616 40.8603 33.128C40.8603 33.5333 40.775 33.9173 40.6043 34.28C40.4336 34.6427 40.2043 34.9627 39.9163 35.24C39.639 35.5067 39.3243 35.7147 38.9723 35.864L38.6043 35.656C38.9243 35.7413 39.223 35.896 39.5003 36.12C39.7883 36.3333 40.023 36.6107 40.2043 36.952C40.3856 37.2827 40.4816 37.6613 40.4923 38.088C40.5136 38.4827 40.5403 38.7973 40.5723 39.032C40.6043 39.2667 40.6523 39.4533 40.7163 39.592C40.7803 39.72 40.871 39.8213 40.9883 39.896C41.095 39.96 41.175 40.04 41.2283 40.136C41.2816 40.232 41.3083 40.328 41.3083 40.424C41.3083 40.5947 41.2496 40.7333 41.1323 40.84C41.015 40.9467 40.8656 41 40.6843 41ZM38.7003 33.544C38.5083 33.544 38.3483 33.4907 38.2203 33.384C38.103 33.2773 38.0443 33.1333 38.0443 32.952C38.0443 32.7813 38.103 32.6427 38.2203 32.536C38.3483 32.4187 38.5083 32.36 38.7003 32.36H41.3723C41.5643 32.36 41.719 32.4187 41.8363 32.536C41.9536 32.6427 42.0123 32.7813 42.0123 32.952C42.0123 33.1333 41.9536 33.2773 41.8363 33.384C41.719 33.4907 41.5643 33.544 41.3723 33.544H38.7003Z" fill="white"/>
</g>
<defs>
<clipPath id="clip0_10_1001">
<rect width="54" height="55" fill="white"/>
</clipPath>
</defs>
</svg>
