<svg width="67" height="67" viewBox="0 0 67 67" fill="none" xmlns="http://www.w3.org/2000/svg">
<path d="M62.8125 13.6094C62.8125 12.7765 62.4816 11.9776 61.8926 11.3886C61.3036 10.7997 60.5048 10.4688 59.6719 10.4688H20.9375V32.8782C21.4194 33.2571 21.7791 33.7695 21.9719 34.3513C22.1648 34.9332 22.1822 35.559 22.0221 36.1507L20.9375 40.2V46.0625H59.6719C60.5048 46.0625 61.3036 45.7316 61.8926 45.1426C62.4816 44.5536 62.8125 43.7548 62.8125 42.9219V13.6094ZM49.5099 13.9161C49.7061 13.7198 49.9724 13.6095 50.25 13.6094H52.3438V15.7031H50.6834L48.8964 17.4901L47.4161 16.0099L49.5099 13.9161ZM52.3438 35.5938V37.6875H49.2031V35.5938H52.3438ZM40.8281 17.7969C40.8281 17.5192 40.9385 17.2529 41.1348 17.0566C41.331 16.8603 41.5974 16.75 41.875 16.75C44.0954 16.7525 46.2241 17.6357 47.7942 19.2058C49.3643 20.7759 50.2475 22.9046 50.25 25.125C50.25 25.4026 50.1397 25.669 49.9434 25.8652C49.7471 26.0615 49.4808 26.1719 49.2031 26.1719H41.875C41.5974 26.1719 41.331 26.0615 41.1348 25.8652C40.9385 25.669 40.8281 25.4026 40.8281 25.125V17.7969ZM29.3125 13.6094H33.5V15.7031H29.3125V13.6094ZM25.125 13.6094H27.2188V15.7031H25.125V13.6094ZM25.125 17.7969H33.5V19.8906H25.125V17.7969ZM29.3125 41.875H25.125V39.7812H29.3125V41.875ZM29.3125 37.6875H25.125V35.5938H29.3125V37.6875ZM34.2401 41.5683C34.0439 41.7647 33.7776 41.8749 33.5 41.875H31.4062V39.7812H33.0666L34.8536 37.9942L36.3339 39.4745L34.2401 41.5683ZM38.7344 36.6406C36.5132 36.6406 34.3829 35.7582 32.8123 34.1877C31.2418 32.6171 30.3594 30.4868 30.3594 28.2656C30.3594 26.0445 31.2418 23.9142 32.8123 22.3436C34.3829 20.773 36.5132 19.8906 38.7344 19.8906C39.012 19.8906 39.2783 20.001 39.4746 20.1973C39.6709 20.3935 39.7812 20.6599 39.7812 20.9375V27.2188H46.0625C46.3401 27.2188 46.6065 27.3291 46.8027 27.5254C46.999 27.7217 47.1094 27.988 47.1094 28.2656C47.1069 30.486 46.2237 32.6148 44.6536 34.1849C43.0835 35.755 40.9548 36.6381 38.7344 36.6406ZM58.625 41.875H49.2031V39.7812H58.625V41.875ZM58.625 37.6875H54.4375V35.5938H58.625V37.6875ZM58.625 19.8906H54.4375V17.7969H58.625V19.8906ZM58.625 15.7031H54.4375V13.6094H58.625V15.7031Z" fill="#9B51E0"/>
<path d="M37.6875 28.2656V22.0713C36.5509 22.2636 35.4891 22.7651 34.6185 23.5207C33.7479 24.2762 33.102 25.2568 32.7516 26.355C32.4011 27.4533 32.3597 28.6267 32.6317 29.747C32.9038 30.8671 33.4789 31.8909 34.2941 32.706C35.1092 33.5212 36.1329 34.0962 37.2531 34.3683C38.3733 34.6404 39.5468 34.5989 40.645 34.2484C41.7432 33.898 42.7238 33.2521 43.4794 32.3815C44.235 31.5109 44.7364 30.4491 44.9287 29.3125H38.7344C38.4568 29.3125 38.1904 29.2023 37.9941 29.0059C37.7977 28.8096 37.6875 28.5433 37.6875 28.2656Z" fill="#9B51E0"/>
<path d="M14.6562 60.7188V55.3682C14.6581 53.9057 14.9985 52.4636 15.6508 51.1545L17.2441 47.9679C17.6064 47.2403 17.7956 46.4388 17.7969 45.626V44.7958C17.7968 44.1552 17.8808 43.5175 18.0471 42.8989L19.9953 35.6085C20.0352 35.4745 20.0478 35.3338 20.0324 35.1947C20.017 35.0557 19.9739 34.9212 19.9056 34.7991C19.8373 34.677 19.7453 34.57 19.635 34.484C19.5246 34.3981 19.3982 34.3351 19.2631 34.2989C19.1281 34.2627 18.9871 34.2539 18.8486 34.2731C18.71 34.2921 18.5767 34.3389 18.4565 34.4104C18.3363 34.4819 18.2316 34.5768 18.1487 34.6894C18.0659 34.802 18.0064 34.9302 17.9738 35.0662L16.7709 39.5719C16.5878 40.241 16.189 40.8309 15.6362 41.2501C15.0834 41.6691 14.4077 41.894 13.7141 41.8897C13.1801 41.8849 12.6563 41.7426 12.1934 41.4766C11.7303 41.2105 11.3437 40.8296 11.0707 40.3707L8.5247 36.1329C8.42681 35.9701 8.37506 35.7838 8.375 35.5938V27.3235C7.19342 27.5663 6.1317 28.2091 5.36889 29.1436C4.60607 30.078 4.18883 31.247 4.1875 32.4532V44.5215C4.1882 44.6842 4.22578 44.8445 4.29742 44.9906L5.95044 48.2924C6.16749 48.7289 6.28071 49.2098 6.28125 49.6973V60.7188H14.6562Z" fill="#9B51E0"/>
<path d="M42.9219 18.9307V24.0781H48.0694C47.8496 22.7929 47.2365 21.6075 46.3145 20.6855C45.3925 19.7636 44.2071 19.1504 42.9219 18.9307Z" fill="#9B51E0"/>
<path d="M14.6562 29.3125C15.2344 29.3125 15.7031 28.8438 15.7031 28.2656C15.7031 27.6874 15.2344 27.2188 14.6562 27.2188C14.0781 27.2188 13.6094 27.6874 13.6094 28.2656C13.6094 28.8438 14.0781 29.3125 14.6562 29.3125Z" fill="#9B51E0"/>
<path d="M10.4688 26.1719V35.3038L12.863 39.2934C12.9672 39.4675 13.1206 39.6069 13.3036 39.6945C13.4867 39.782 13.6916 39.8137 13.8926 39.7855C14.0935 39.7574 14.2817 39.6707 14.4338 39.5363C14.5858 39.4019 14.6948 39.2256 14.7473 39.0296L15.9544 34.528C16.1226 33.8825 16.4947 33.3086 17.0153 32.8916C17.5358 32.4746 18.1771 32.2367 18.8438 32.2134V10.4688H13.6094C12.7765 10.4688 11.9776 10.7997 11.3886 11.3886C10.7997 11.9776 10.4688 12.7765 10.4688 13.6094V26.1719ZM14.6562 25.125C15.2774 25.125 15.8847 25.3091 16.4011 25.6543C16.9176 25.9993 17.3201 26.4899 17.5578 27.0637C17.7955 27.6376 17.8577 28.2691 17.7366 28.8784C17.6153 29.4875 17.3163 30.0472 16.877 30.4864C16.4378 30.9256 15.8782 31.2247 15.269 31.3459C14.6597 31.4671 14.0282 31.4049 13.4543 31.1671C12.8805 30.9295 12.39 30.527 12.0449 30.0105C11.6998 29.494 11.5156 28.8867 11.5156 28.2656C11.5156 27.4327 11.8465 26.6339 12.4355 26.0449C13.0245 25.4559 13.8234 25.125 14.6562 25.125Z" fill="#9B51E0"/>
</svg>
