<svg width="65" height="59" viewBox="0 0 65 59" fill="none" xmlns="http://www.w3.org/2000/svg">
<path d="M54.4749 5.53125H10.0879C6.65804 5.53125 4.03517 7.92812 4.03517 11.0625V38.7188C4.03517 41.8531 6.65804 44.25 10.0879 44.25H54.4749C57.9048 44.25 60.5277 41.8531 60.5277 38.7188V11.0625C60.5277 7.92812 57.9048 5.53125 54.4749 5.53125ZM21.5882 23.4156L15.5354 28.9469C15.1319 29.3156 14.7284 29.5 14.1231 29.5C13.5178 29.5 13.1143 29.3156 12.7108 28.9469C11.9038 28.2094 11.9038 27.1031 12.7108 26.3656L17.3513 22.125L12.7108 17.8844C11.9038 17.1469 11.9038 16.0406 12.7108 15.3031C13.5178 14.5656 14.7284 14.5656 15.5354 15.3031L21.5882 20.8344C22.3952 21.5719 22.3952 22.6781 21.5882 23.4156ZM34.299 29.5H26.2287C25.0181 29.5 24.2111 28.7625 24.2111 27.6562C24.2111 26.55 25.0181 25.8125 26.2287 25.8125H34.299C35.5096 25.8125 36.3166 26.55 36.3166 27.6562C36.3166 28.7625 35.5096 29.5 34.299 29.5Z" fill="#9B51E0"/>
<path d="M46.4046 51.625C44.1852 51.625 42.1676 50.3344 41.3606 48.3063C41.3606 48.1219 41.1588 47.9375 41.1588 47.9375H23.2023C23.2023 48.1219 23.2023 48.3063 23.0005 48.3063C22.3952 50.3344 20.3777 51.625 18.1583 51.625C16.9478 51.625 16.1407 52.3625 16.1407 53.4688C16.1407 54.575 16.9478 55.3125 18.1583 55.3125H46.4046C47.6151 55.3125 48.4221 54.575 48.4221 53.4688C48.4221 52.3625 47.6151 51.625 46.4046 51.625Z" fill="#9B51E0"/>
</svg>
