<svg width="63" height="57" viewBox="0 0 63 57" fill="none" xmlns="http://www.w3.org/2000/svg">
<path d="M59.2216 11.3173C59.359 11.4419 59.534 11.5267 59.7245 11.561C59.9151 11.5954 60.1125 11.5778 60.292 11.5103C60.4715 11.443 60.625 11.3288 60.7329 11.1824C60.8408 11.0359 60.8984 10.8637 60.8984 10.6875V2.67188C60.8984 2.43567 60.7949 2.20914 60.6107 2.04211C60.4266 1.87509 60.1767 1.78125 59.9162 1.78125H51.0761C50.8818 1.78126 50.6919 1.83351 50.5305 1.93136C50.3689 2.02923 50.243 2.16832 50.1686 2.33106C50.0943 2.49378 50.0748 2.67284 50.1128 2.8456C50.1506 3.01836 50.2441 3.17706 50.3815 3.30162L52.4188 5.14898L40.3812 11.3862L28.137 1.99201C27.9664 1.86112 27.7516 1.78689 27.5283 1.78158C27.3048 1.77628 27.086 1.84021 26.9081 1.96281L2.35236 18.8847C2.14582 19.027 2.00975 19.2376 1.97389 19.4706C1.93801 19.7035 2.00523 19.9399 2.16087 20.1281L5.10757 23.6906C5.18568 23.785 5.2837 23.8644 5.39596 23.9242C5.50822 23.984 5.63246 24.0229 5.76146 24.0389C5.89047 24.0547 6.02167 24.0471 6.14742 24.0166C6.27317 23.9861 6.39097 23.9331 6.49399 23.861L27.4744 9.16081L37.59 16.9219H23.5736C23.313 16.9219 23.0632 17.0157 22.879 17.1827C22.6948 17.3497 22.5913 17.5763 22.5913 17.8125V24.0758L13.7727 23.162C13.5139 23.1352 13.2539 23.2027 13.0501 23.3497C12.8461 23.4967 12.7149 23.7111 12.6853 23.9458L11.7931 31.0247C11.7785 31.1408 11.7892 31.2586 11.8247 31.371C11.8603 31.4834 11.9198 31.5885 12.0001 31.68C12.0804 31.7715 12.1797 31.8479 12.2925 31.9046C12.4054 31.9613 12.5294 31.9974 12.6575 32.0106L39.398 34.7817L34.3781 36.9745V36.5156C34.3781 36.2794 34.2746 36.0528 34.0905 35.8858C33.9063 35.7188 33.6564 35.625 33.3959 35.625H21.3381C20.6489 35.6254 19.9816 35.8445 19.4518 36.2442L14.3778 40.0781H1.96447V52.5469H14.6474L31.2606 55.2052C31.4783 55.24 31.7025 55.2073 31.8971 55.1123L57.4352 42.6436C57.5521 42.5865 57.6551 42.5084 57.7378 42.4142C57.8206 42.3201 57.8814 42.2115 57.9166 42.0954C57.9518 41.9793 57.9607 41.8579 57.9426 41.7386C57.9246 41.6192 57.8801 41.5045 57.8117 41.4011L56.7012 39.7229C56.2145 38.9837 55.5018 38.3885 54.6493 38.0093L60.3431 35.5181C60.5776 35.4155 60.7576 35.2327 60.8434 35.0098C60.9293 34.7869 60.9141 34.5421 60.801 34.3295L57.3906 27.9105C57.2775 27.6978 57.0758 27.5345 56.83 27.4564C56.5841 27.3785 56.3141 27.3923 56.0794 27.4947L43.163 33.137L43.9135 27.1818C43.9281 27.0655 43.9174 26.9479 43.882 26.8354C43.8464 26.723 43.7868 26.618 43.7065 26.5265C43.6263 26.4349 43.5269 26.3586 43.4142 26.3018C43.3013 26.2452 43.1773 26.2091 43.0492 26.1958L39.501 25.8281H53.0405C53.3011 25.8281 53.5509 25.7343 53.7351 25.5673C53.9193 25.4003 54.0228 25.1737 54.0228 24.9375V17.8125C54.0228 17.5763 53.9193 17.3497 53.7351 17.1827C53.5509 17.0157 53.3011 16.9219 53.0405 16.9219H43.5975L56.8364 9.15451L59.2216 11.3173ZM27.7999 41.8594H29.467C29.6141 41.8594 29.7594 41.8524 29.9032 41.8408L30.9129 43.7412L27.7999 41.8594ZM17.76 30.7465L13.8564 30.342L14.5256 25.0328L18.4291 25.4374L17.76 30.7465ZM23.6152 31.3533L19.7117 30.9488L20.381 25.6396L24.2845 26.0441L23.6152 31.3533ZM24.5558 18.7031H28.4847V24.0469H24.5558V18.7031ZM29.4705 31.9601L25.567 31.5556L26.2362 26.2464L30.1397 26.651L29.4705 31.9601ZM30.4492 18.7031H34.3781V24.0469H30.4492V18.7031ZM35.3257 32.5669L31.4222 32.1624L32.0915 26.8531L35.9949 27.2577L35.3257 32.5669ZM34.2237 44.9686L33.9801 45.0738C33.9311 45.0943 33.8803 45.1113 33.8282 45.1242L31.8073 41.3204C32.7934 40.8332 33.5672 40.0559 34.001 39.1165L34.8096 38.7632L37.3742 43.5901L34.2237 44.9686ZM39.1434 42.816L36.5793 37.9902L40.1189 36.4439L42.682 41.2678L39.1434 42.816ZM56.047 29.4859L58.6053 34.3006L55.0668 35.849L52.5076 31.0322L56.047 29.4859ZM50.7378 31.8052L53.2975 36.6231L49.759 38.1713L47.1981 33.3515L50.7378 31.8052ZM45.4284 34.1245L47.9898 38.9454L44.4512 40.4936L41.8888 35.6709L45.4284 34.1245ZM41.8502 27.8644L41.1811 33.1737L37.2774 32.7691L37.9467 27.46L41.8502 27.8644ZM40.2715 24.0469H36.3426V18.7031H40.2715V24.0469ZM48.1294 18.7031H52.0583V24.0469H48.1294V18.7031ZM46.1649 18.7031V24.0469H42.236V18.7031H46.1649Z" fill="#9B51E0"/>
<path d="M18.0732 1.95947L7.26848 9.30701L8.44711 10.732L19.2517 3.38445L18.0732 1.95947Z" fill="#9B51E0"/>
<path d="M4.97664 10.8656L2.35736 12.6468L3.53599 14.0718L6.15527 12.2906L4.97664 10.8656Z" fill="#9B51E0"/>
</svg>
